<svg id="Isolation_Mode" data-name="Isolation Mode" xmlns="http://www.w3.org/2000/svg" viewBox="0 0 73.66 94.85"><defs><style>.cls-1{fill:#ef4123;}</style></defs><title>soma_letter-04</title><path class="cls-1" d="M77.12,184.15c-14.2,0-28.57-9.29-28.57-27.05,0-8.45,2.82-15.55,8.39-21.11,8.64-8.62,23.27-13.09,43.5-13.28C100.32,111,94.62,105.25,83,105.25a40.59,40.59,0,0,0-21.29,6.09l-2.33,1.52-5-14.63,1.43-.93c7.84-5.11,18.61-8,29.54-8,22.89,0,35,13,35,37.61v32.38a117.65,117.65,0,0,0,1.39,20.36l0.47,2.58H103.36l-1-8.34A34.94,34.94,0,0,1,77.12,184.15Zm24.74-57.08c-19.51,0-34,4.15-41.85,12-4.72,4.71-7.11,10.77-7.11,18,0,10.92,7.58,22.68,24.21,22.68,10.11,0,19.31-4.47,24.62-12l0.65-.92H106l1.25,10.92H117a135.5,135.5,0,0,1-1-18.51V126.86c0-22.06-10.31-33.24-30.63-33.24-9.3,0-18.77,2.39-25.73,6.45l2.13,6.19A45.81,45.81,0,0,1,83,100.88c14.05,0,21.79,7.89,21.79,22.22v4h-2.94v0ZM81.22,172.52c-10.31,0-17-6.76-17-17.21a17.83,17.83,0,0,1,5.28-13.23c6.05-6,17.32-8.82,33.5-8.46h2.13v17.17a18.66,18.66,0,0,1-1,5.7A23.71,23.71,0,0,1,81.22,172.52ZM100.42,138c-13.59,0-23,2.43-27.85,7.24a13.43,13.43,0,0,0-4,10.11c0,8,4.72,12.84,12.62,12.84a19.39,19.39,0,0,0,18.8-13,14.14,14.14,0,0,0,.78-4.3V138h-0.35Z" transform="translate(-48.55 -89.3)"/></svg>