<svg id="Isolation_Mode" data-name="Isolation Mode" xmlns="http://www.w3.org/2000/svg" viewBox="0 0 107.88 94.51"><defs><style>.cls-1{fill:#ef4123;}</style></defs><title>soma_letter-03</title><path class="cls-1" d="M107.88,94.51H87.83l-2.46-50.6c-0.29-4.92-.6-10.24-0.87-15.62-1.71,5.19-3.74,11-6.58,18.79L60.11,94H45.16L28.68,48c-1.81-5.58-3.95-12.55-5.82-19-0.3,7-.65,14.15-1,20.77L19.5,94.51H0L7,0H30.78L47.49,46.88c0.66,2,1.43,4.25,2.26,6.69,1.34,3.92,2.79,8.18,4,12.06,2.37-7.13,5.78-16.87,8.64-24.89L77.45,0h23.82ZM92,90.08h11.11l-6-85.65H80.53L66.59,42.25C63,52.39,58,66.55,56.06,73L55.58,74.6H51.92L51.46,73c-1.44-5-3.8-11.9-5.88-18-0.84-2.45-1.62-4.74-2.26-6.67L27.54,4.43H11.1L4.75,90.08H15.31l2.12-40.52c0.59-10.41,1.13-22.2,1.48-32.35L19.11,15l4.44,0.07L24,16.72c2.12,8,5.93,20.82,8.87,29.85l15.41,43h8.8l16.71-44C78.56,32.36,81,25,83.55,16.48L84,14.89h4.34L88.43,17c0.3,8.93.86,18.33,1.35,26.62l0.32,5.52Z"/></svg>