<svg id="Isolation_Mode" data-name="Isolation Mode" xmlns="http://www.w3.org/2000/svg" viewBox="0 0 88.73 94.91"><defs><style>.cls-1{fill:#ef4123;}</style></defs><title>soma_letter-02</title><path class="cls-1" d="M84.56,184.15C58.92,184.15,41,164.93,41,137.41,41,109,59.49,89.24,86,89.24c25.75,0,43.73,19.22,43.73,46.74C129.72,169.26,107,184.15,84.56,184.15ZM86,93.62c-24.3,0-40.62,17.6-40.62,43.8,0,24.95,16.12,42.37,39.19,42.37,20.31,0,40.8-13.54,40.8-43.8C125.36,110.64,109.54,93.62,86,93.62Zm-0.71,78.73c-16.45,0-28.39-14.91-28.39-35.46,0-17.83,8.89-35.82,28.75-35.82,13.5,0,28,11.1,28,35.47,0,20.74-11.92,35.8-28.37,35.8h0Zm0.36-66.92c-16.85,0-24.39,15.8-24.39,31.45,0,18,10.11,31.09,24,31.09s24-13.23,24-31.45c0-10.75-4.9-31.1-23.63-31.1h0Z" transform="translate(-41 -89.24)"/></svg>