<svg id="Isolation_Mode" data-name="Isolation Mode" xmlns="http://www.w3.org/2000/svg" viewBox="0 0 61.32 94.75"><defs><style>.cls-1{fill:#ef4123;}</style></defs><title>soma_letter-01</title><path class="cls-1" d="M84.73,184c-9.43,0-18.67-2.26-25.36-6.21l-1.51-.89,5.36-16.37,2.38,1.56A38.77,38.77,0,0,0,85.09,168c9.13,0,14.59-4,14.59-10.7,0-5.48-2.33-9.32-14.63-13.88C65,136.24,60.8,125,60.8,116.84c0-16.25,13.14-27.59,32-27.59,8,0,16.35,2.12,22.33,5.67l1.53,0.91-5.39,15.75-2.33-1.48a31.55,31.55,0,0,0-16.49-4.67c-7.34,0-12.27,3.87-12.27,9.63,0,5.35,3.37,8.18,15,12.63,16.63,6.36,24,15,24,28.16C119.19,172.93,105.66,184,84.73,184Zm-21.62-9.13a48.9,48.9,0,0,0,21.62,4.76c18.57,0,30.1-9.1,30.1-23.76,0-11.34-6.15-18.31-21.24-24.08C83.5,127.91,75.78,124.23,75.78,115c0-8.24,6.83-14,16.62-14a35.74,35.74,0,0,1,16.45,4l2.47-7.22a42.2,42.2,0,0,0-18.56-4.21c-16.25,0-27.6,9.55-27.6,23.22,0,9.83,7.19,17.38,21.38,22.46,10.81,4,17.5,8.4,17.5,18,0,7.28-5,15.07-18.94,15.07a43.61,43.61,0,0,1-19.46-5.19Z" transform="translate(-57.86 -89.25)"/></svg>